<?xml version="1.0" encoding="iso-8859-1"?>
<!-- Generator: Adobe Illustrator 19.0.0, SVG Export Plug-In . SVG Version: 6.00 Build 0)  -->
<svg xmlns="http://www.w3.org/2000/svg" xmlns:xlink="http://www.w3.org/1999/xlink" version="1.1" id="Layer_1" x="0px" y="0px" viewBox="0 0 511.999 511.999" style="enable-background:new 0 0 511.999 511.999;" xml:space="preserve">
<rect x="9.253" y="107.028" style="fill:#00A5FF;" width="493.495" height="364.45"/>
<rect x="29.609" y="126.025" style="fill:#0087FF;" width="452.775" height="327.701"/>
<rect x="49.225" y="146.525" style="fill:#EFEFEF;" width="413.55" height="286.699"/>
<path style="fill:#FF318E;" d="M441.541,247.487c-0.013,0-0.025,0-0.025,0l-22.294-9.229v-49.152h-69.694v49.152l-22.294,9.229  c0,0-0.013,0-0.025,0l-34.742-34.742l-49.275,49.275l34.754,34.754l-9.241,22.305h-49.152v69.694h49.152l9.241,22.294  l-22.158,22.158h206.984V226.254L441.541,247.487z M384.371,400.123c-25.507,0-46.192-20.685-46.192-46.202  s20.685-46.202,46.192-46.202c25.517,0,46.202,20.685,46.202,46.202C430.573,379.438,409.888,400.123,384.371,400.123z"/>
<rect x="9.253" y="40.523" style="fill:#EFEFEF;" width="493.495" height="66.508"/>
<path d="M83.126,155.782c5.111,0,9.253-4.143,9.253-9.253c0-5.11-4.143-9.253-9.253-9.253H49.222c-5.111,0-9.253,4.143-9.253,9.253  v286.7c0,5.111,4.143,9.253,9.253,9.253h413.555c5.111,0,9.253-4.143,9.253-9.253v-286.7c0-5.111-4.142-9.253-9.253-9.253H120.289  c-5.111,0-9.253,4.143-9.253,9.253c0,5.11,4.143,9.253,9.253,9.253h333.236v66.635l-14.163,14.163l-10.886-4.506v-42.968  c0-5.111-4.142-9.253-9.253-9.253h-69.693c-5.111,0-9.253,4.143-9.253,9.253v42.968l-10.887,4.507l-30.378-30.379  c-1.737-1.736-4.089-2.71-6.543-2.71c-2.454,0-4.808,0.975-6.543,2.71L268.89,223.24c-3.613,3.614-3.613,9.472,0.001,13.085  c3.611,3.614,9.47,3.614,13.085,0l10.494-10.495l28.199,28.199c2.596,2.594,6.72,3.41,10.107,2.006l22.294-9.229  c3.459-1.432,5.715-4.807,5.715-8.549v-39.899h51.186v39.899c0,3.744,2.256,7.118,5.715,8.549l22.294,9.229  c1.121,0.465,2.348,0.703,3.563,0.703c2.454,0,4.808-0.975,6.543-2.71l5.44-5.44v175.389H278.125l6.367-6.367  c2.647-2.647,3.438-6.628,2.005-10.086l-9.241-22.293c-1.434-3.457-4.807-5.709-8.548-5.709h-39.898v-51.187h39.898  c3.742,0,7.116-2.254,8.548-5.711l9.241-22.306c1.433-3.458,0.641-7.438-2.005-10.084l-28.212-28.211l2.563-2.562  c3.613-3.613,3.613-9.472,0-13.085c-3.614-3.613-9.473-3.613-13.086,0l-9.105,9.105c-3.614,3.613-3.614,9.472,0,13.085l30.384,30.38  l-4.509,10.883h-42.97c-5.111,0-9.253,4.143-9.253,9.253v69.694c0,5.111,4.143,9.253,9.253,9.253h42.971l4.506,10.87l-15.08,15.08  H58.476V155.782H83.126z"/>
<path d="M439.827,353.921c0-30.578-24.877-55.456-55.456-55.456c-30.573,0-55.444,24.878-55.444,55.456s24.873,55.456,55.444,55.456  C414.95,409.377,439.827,384.5,439.827,353.921z M347.433,353.921c0-20.374,16.571-36.95,36.938-36.95  c20.373,0,36.95,16.576,36.95,36.95s-16.576,36.95-36.95,36.95C364.004,390.871,347.433,374.296,347.433,353.921z"/>
<path d="M502.747,31.27H239.344c-5.111,0-9.253,4.143-9.253,9.253s4.143,9.253,9.253,9.253h254.149v47.998H18.506V49.776h182.593  c5.111,0,9.253-4.143,9.253-9.253s-4.143-9.253-9.253-9.253H9.253C4.143,31.27,0,35.413,0,40.523v66.505v364.449  c0,5.111,4.143,9.253,9.253,9.253h493.494c5.111,0,9.253-4.143,9.253-9.253V277.163c0-5.111-4.142-9.253-9.253-9.253  c-5.111,0-9.253,4.143-9.253,9.253v185.06H18.506V116.28h474.988v124.103c0,5.111,4.142,9.253,9.253,9.253  c5.111,0,9.253-4.143,9.253-9.253V107.027V40.523C512,35.413,507.858,31.27,502.747,31.27z"/>
<path d="M77.874,64.522c-5.111,0-9.253,4.143-9.253,9.253c0,5.111,4.143,9.253,9.253,9.253h10.503c5.111,0,9.253-4.143,9.253-9.253  c0-5.111-4.143-9.253-9.253-9.253C88.377,64.522,77.874,64.522,77.874,64.522z"/>
<path d="M130.723,73.776c0,5.111,4.143,9.253,9.253,9.253h294.149c5.111,0,9.253-4.143,9.253-9.253c0-5.111-4.142-9.253-9.253-9.253  H139.976C134.866,64.522,130.723,68.665,130.723,73.776z"/>
<path d="M112.272,218.797h64.152c5.111,0,9.253-4.143,9.253-9.253c0-5.11-4.143-9.253-9.253-9.253h-64.152  c-5.111,0-9.253,4.143-9.253,9.253C103.02,214.654,107.162,218.797,112.272,218.797z"/>
<path d="M112.272,251.697h32.076c5.111,0,9.253-4.143,9.253-9.253c0-5.11-4.143-9.253-9.253-9.253h-32.076  c-5.111,0-9.253,4.143-9.253,9.253C103.02,247.554,107.162,251.697,112.272,251.697z"/>
<path d="M112.272,284.596h9.66c5.111,0,9.253-4.143,9.253-9.253s-4.143-9.253-9.253-9.253h-9.66c-5.111,0-9.253,4.143-9.253,9.253  S107.162,284.596,112.272,284.596z"/>
<path d="M112.272,392.327h64.152c5.111,0,9.253-4.143,9.253-9.253c0-5.111-4.143-9.253-9.253-9.253h-64.152  c-5.111,0-9.253,4.143-9.253,9.253S107.162,392.327,112.272,392.327z"/>
<g>
</g>
<g>
</g>
<g>
</g>
<g>
</g>
<g>
</g>
<g>
</g>
<g>
</g>
<g>
</g>
<g>
</g>
<g>
</g>
<g>
</g>
<g>
</g>
<g>
</g>
<g>
</g>
<g>
</g>
</svg>
