<svg xmlns="http://www.w3.org/2000/svg" viewBox="0 0 512 512"><defs><style>.cls-1{fill:#cf4b74;}.cls-2{fill:#a2436c;}.cls-3{fill:#da8ab3;}.cls-4{fill:#683027;}.cls-5{fill:#552723;}.cls-6{fill:#efc788;}.cls-7{fill:#c2a077;}.cls-8{fill:#d9b37f;}.cls-9{fill:#2b3060;}.cls-10,.cls-20{fill:none;stroke-linecap:round;stroke-width:10px;}.cls-10{stroke:#c2a077;stroke-miterlimit:10;}.cls-11{fill:#4e5e9c;}.cls-12{fill:#4c856f;}.cls-13{fill:#40705e;}.cls-14{fill:#495a89;}.cls-15{fill:#83b3d0;}.cls-16{fill:#91c7ee;}.cls-17{fill:#334079;}.cls-18{fill:#bdddef;}.cls-19{fill:#75baa1;}.cls-20{stroke:#c9dcf1;stroke-linejoin:round;}</style></defs><title>Artificial Intelligence</title><g id="BULINE"><circle class="cls-1" cx="256" cy="256" r="256"/></g><g id="Icons"><circle class="cls-2" cx="255.71" cy="256.48" r="233.82"/><path class="cls-3" d="M143.91,403.17h0c-12.47-12.47-33.29-12.34-47.47-2.13a7.79,7.79,0,0,1-9.11,0c-14.17-10.21-35-10.34-47.47,2.13a35.56,35.56,0,0,0,0,50.29l1.73,1.74,33,32.95a24.5,24.5,0,0,0,34.67,0l33-32.95,1.73-1.74A35.56,35.56,0,0,0,143.91,403.17Z"/><path class="cls-4" d="M248.76,162.25V57.8H217.47A134.4,134.4,0,0,0,83.06,192.21v93.58h24.43V201.9c0-1.21,0-2.4.1-3.6a314.65,314.65,0,0,0,54.75-4.68q6.14-1.1,11.94-2.39c2.59-.57,5.12-1.17,7.63-1.8s4.94-1.28,7.35-2c3.6-1,7.12-2.08,10.52-3.19q3.41-1.11,6.68-2.28c2.19-.79,4.33-1.57,6.41-2.38h0l2.33-.92c1.54-.62,3.07-1.24,4.56-1.87l2.22-1h0c2-.84,3.88-1.71,5.75-2.58l2.78-1.31c1.82-.87,3.6-1.76,5.34-2.65h0c1.74-.88,3.45-1.77,5.09-2.68s3.27-1.78,4.84-2.69l2.95-1.71"/><path class="cls-5" d="M248.76,162.26,245.81,164c-1.57.91-3.18,1.8-4.84,2.69s-3.35,1.8-5.09,2.68h0c-1.74.89-3.52,1.78-5.34,2.65l-2.78,1.31c-1.87.87-3.79,1.74-5.75,2.58h0q-4.41,1.92-9.11,3.74h0c-2.1.81-4.22,1.61-6.41,2.38s-4.41,1.54-6.68,2.28q-5.1,1.66-10.52,3.19-3.62,1-7.35,2c-2.49.63-5,1.24-7.63,1.8q-5.81,1.29-11.94,2.39a314.65,314.65,0,0,1-54.75,4.68c-.06,1.2-.1,2.39-.1,3.6v83.89H83.06V192.21A134.32,134.32,0,0,1,149.75,76.1c17,21.08,47.22,45.26,99,52.12v34"/><circle class="cls-6" cx="107.49" cy="276.24" r="35.3"/><circle class="cls-7" cx="107.49" cy="276.24" r="15.6"/><path class="cls-8" d="M248.76,434.82v11.49c-74.7-.7-136.1-61-140.94-134.79q-.33-4.68-.33-9.43V201.9c0-1.21,0-2.4.1-3.6a314.65,314.65,0,0,0,54.75-4.68v110.1A142.61,142.61,0,0,0,248.76,434.82Z"/><path class="cls-6" d="M248.76,162.26V434.82a142.61,142.61,0,0,1-86.42-131.1V193.62q6.14-1.1,11.94-2.39c2.59-.57,5.12-1.17,7.63-1.8s4.94-1.28,7.35-2c3.6-1,7.12-2.08,10.52-3.19q3.41-1.11,6.68-2.28c2.19-.79,4.33-1.57,6.41-2.38h0q4.69-1.85,9.11-3.74h0c2-.86,3.87-1.71,5.75-2.58l2.78-1.31q2.73-1.32,5.34-2.65h0c1.74-.89,3.43-1.79,5.09-2.68s3.27-1.78,4.84-2.69c1-.57,2-1.15,2.95-1.72"/><rect class="cls-9" x="169.25" y="248.76" width="28.36" height="48.51" rx="14.18"/><path class="cls-7" d="M248.76,304.44v24.29h-14.1a9,9,0,0,1-9-9V313.4a9,9,0,0,1,9-9Z"/><path class="cls-10" d="M220.12,360.54a28.64,28.64,0,0,0,28.64,28.64"/><polygon class="cls-11" points="462.51 286.38 412.01 281.68 412.01 306.23 462.51 301.53 462.51 286.38"/><path class="cls-12" d="M445.48,294a22.29,22.29,0,1,1,14.68,21A22.35,22.35,0,0,1,445.48,294Z"/><ellipse class="cls-13" cx="460.16" cy="293.95" rx="14.68" ry="20.98"/><path class="cls-9" d="M398.56,258.28h23.63a0,0,0,0,1,0,0v71.61a0,0,0,0,1,0,0H398.56a28.83,28.83,0,0,1-28.83-28.83V287.12a28.83,28.83,0,0,1,28.83-28.83Z" transform="translate(791.91 588.18) rotate(180)"/><path class="cls-14" d="M401.14,209.57a150.68,150.68,0,0,1-8.15,49q-1.65,4.84-3.64,9.54a125.18,125.18,0,0,0-9.84,48.6V317q0,6.51-.63,12.87A129.19,129.19,0,0,1,250.22,446.31c-.49,0-1,0-1.46,0V58.66h.41a150.78,150.78,0,0,1,152,150.91Z"/><path class="cls-11" d="M401.14,209.57a150.68,150.68,0,0,1-8.15,49q-1.65,4.84-3.64,9.54a125.18,125.18,0,0,0-9.84,48.6V317q0,6.51-.63,12.87A129.32,129.32,0,0,1,272.11,444.46a126.78,126.78,0,0,1-23.35-6.3V65.47A149.63,149.63,0,0,1,272,60.22,150.76,150.76,0,0,1,401.14,209.57Z"/><path class="cls-15" d="M302,67.23l0,.53-7.23,104.73a43.52,43.52,0,0,1-43.47,40.56h-2.5V51.58a8.43,8.43,0,0,1,8.43-8.44h22.33A22.54,22.54,0,0,1,302,67.23Z"/><path class="cls-16" d="M302,67.23l0,.53-7.23,104.73a43.6,43.6,0,0,1-26.44,37.11,43.68,43.68,0,0,1-19.53-16.41V51.58a8.37,8.37,0,0,1,8.2-8.44h22.56A22.54,22.54,0,0,1,302,67.23Z"/><path class="cls-17" d="M360.33,240.45v53.24A21.35,21.35,0,0,1,339,315H248.76V219.1H339A21.35,21.35,0,0,1,360.33,240.45Z"/><circle class="cls-16" cx="313.35" cy="267.08" r="27.01"/><circle class="cls-18" cx="313.35" cy="267.08" r="14.6"/><path class="cls-12" d="M328,367.48v24.21a6.53,6.53,0,0,1-6.54,6.53H248.76V361h72.65A6.53,6.53,0,0,1,328,367.48Z"/><rect class="cls-19" x="269.02" y="360.95" width="14.6" height="37.27"/><rect class="cls-19" x="296.03" y="360.95" width="14.6" height="37.27"/><rect class="cls-19" x="248.76" y="360.95" width="8.69" height="37.27"/><path class="cls-9" d="M290.45,219.1a21,21,0,0,1-20.95,21H248.76v-21Z"/><polyline class="cls-20" points="380.63 145.61 415.11 111.13 446.04 142.06 465.78 122.68"/><line class="cls-20" x1="380.63" y1="167.95" x2="399.35" y2="167.95"/><line class="cls-20" x1="412.02" y1="167.95" x2="427.35" y2="167.95"/><line class="cls-20" x1="442.24" y1="167.95" x2="470.69" y2="167.95"/></g></svg>